# xmcd
#
# Track frame offsets:
#	150
#	12177
#	26030
#	40880
#	56495
#	73112
#	87225
#	101050
#	113177
#	129475
#
# Disc length: 1930 seconds
#
# Revision: 5
# Processed by: cddbd v1.5.2PL0 Copyright (c) Steve Scherf et al.
# Submitted via: EZCDAudioConverter 6.0.5.1
#
DISCID=8307880a
DTITLE=Rob Crosby - Solid Ground
DYEAR=1990
DGENRE=Country
TTITLE0=Love Will Bring Her Around
TTITLE1=Working Woman
TTITLE2=She's A Natural
TTITLE3=Solid Ground
TTITLE4=The Woman In You
TTITLE5=Still Burnin' For You
TTITLE6=Somewhere Down The Line
TTITLE7=Good Ain't Good Enough
TTITLE8=(Nobody's Gonna) Hurt My Heart
TTITLE9=Once In A While
EXTD=
EXTT0=
EXTT1=
EXTT2=
EXTT3=
EXTT4=
EXTT5=
EXTT6=
EXTT7=
EXTT8=
EXTT9=
PLAYORDER=
